<?xml version="1.0" encoding="utf-8"?>
<!-- Generator: Adobe Illustrator 15.1.0, SVG Export Plug-In . SVG Version: 6.00 Build 0)  -->
<!DOCTYPE svg PUBLIC "-//W3C//DTD SVG 1.1//EN" "http://www.w3.org/Graphics/SVG/1.1/DTD/svg11.dtd">
<svg version="1.1" id="Layer_1" xmlns="http://www.w3.org/2000/svg" xmlns:xlink="http://www.w3.org/1999/xlink" x="0px" y="0px"
	 width="1500px" height="330px" viewBox="0 0 1500 330" enable-background="new 0 0 1360 330" xml:space="preserve">
<g>
	<g>
		<path fill="#FFFFFF" d="M199.948,60.441c58.177,0,105.507,47.33,105.507,105.507c0,28.183-10.975,54.678-30.902,74.605
			c-19.928,19.927-46.423,30.901-74.605,30.901c-58.177,0-105.508-47.33-105.508-105.507S141.771,60.441,199.948,60.441
			 M199.948,50.441c-63.792,0-115.508,51.713-115.508,115.507c0,63.795,51.716,115.507,115.508,115.507
			c63.793,0,115.507-51.712,115.507-115.507C315.455,102.155,263.741,50.441,199.948,50.441L199.948,50.441z"/>
	</g>
	<g>
		<path fill="#FFFFFF" d="M199.948,39.188c70.007,0,126.761,56.753,126.761,126.761c0,70.006-56.754,126.761-126.761,126.761
			c-70.007,0-126.76-56.755-126.76-126.761C73.188,95.941,129.941,39.188,199.948,39.188 M199.948,29.188
			c-36.53,0-70.873,14.226-96.704,40.057c-25.831,25.831-40.056,60.174-40.056,96.704c0,36.529,14.226,70.872,40.056,96.703
			c25.831,25.832,60.174,40.058,96.704,40.058c36.529,0,70.873-14.226,96.704-40.057c25.831-25.832,40.057-60.175,40.057-96.704
			c0-36.53-14.226-70.873-40.057-96.704S236.478,29.188,199.948,29.188L199.948,29.188z"/>
	</g>
	<g>
		<path fill="#FFFFFF" d="M200.002,16C282.849,16,350,83.157,350,166s-67.151,150-149.998,150C117.159,316,50,248.843,50,166
			S117.159,16,200.002,16 M200.002,6c-42.738,0-82.917,16.643-113.138,46.863C56.643,83.083,40,123.263,40,166
			s16.643,82.917,46.864,113.137C117.084,309.357,157.264,326,200.002,326c42.739,0,82.919-16.643,113.138-46.863
			C343.358,248.918,360,208.738,360,166s-16.642-82.917-46.86-113.137C282.921,22.643,242.741,6,200.002,6L200.002,6z"/>
	</g>
	<g>
		<path fill="none" stroke="#FFFFFF" stroke-width="2" stroke-miterlimit="10" d="M250.044,126.192
			c0.001,0.061,0.003,0.121,0.003,0.182c0,3.972-0.438,7.839-1.259,11.562c11.096,7.696,18.356,20.524,18.356,35.067
			c0,23.571-19.075,42.648-42.647,42.648c-5.241,0-10.259-0.945-14.896-2.671c-2.758,2.864-5.834,5.42-9.171,7.612
			c7.228,3.658,15.403,5.721,24.065,5.721c29.467,0,53.313-23.846,53.313-53.312C277.809,152.795,266.594,135.234,250.044,126.192z"
			/>
		<path fill="none" stroke="#FFFFFF" stroke-width="2" stroke-miterlimit="10" d="M256.483,173.002
			c0,17.68-14.307,31.987-31.986,31.987c-2.737,0-5.393-0.344-7.928-0.988c-2.001,3.24-4.34,6.25-6.968,8.979
			c4.637,1.726,9.654,2.671,14.896,2.671c23.572,0,42.647-19.077,42.647-42.648c0-14.543-7.261-27.371-18.356-35.067
			c-0.821,3.721-2.03,7.296-3.584,10.68C252.106,154.48,256.483,163.225,256.483,173.002z"/>
		<path fill="none" stroke="#FFFFFF" stroke-width="2" stroke-miterlimit="10" d="M256.483,173.002
			c0-9.777-4.377-18.521-11.279-24.387c-1.528,3.331-3.39,6.475-5.542,9.392c3.807,3.851,6.158,9.145,6.158,14.995
			c0,11.786-9.537,21.325-21.323,21.325c-1.069,0-2.119-0.081-3.146-0.232c-1.256,3.485-2.864,6.801-4.782,9.906
			c2.535,0.645,5.19,0.988,7.928,0.988C242.177,204.989,256.483,190.682,256.483,173.002z"/>
		<path fill="none" stroke="#FFFFFF" stroke-width="2" stroke-miterlimit="10" d="M245.82,173.002c0-5.85-2.352-11.144-6.158-14.995
			c-2.125,2.879-4.529,5.537-7.179,7.931c1.665,1.88,2.676,4.353,2.676,7.064c0,5.894-4.769,10.662-10.662,10.662
			c-0.184,0-0.366-0.004-0.548-0.014c-0.518,3.611-1.396,7.105-2.598,10.444c1.026,0.151,2.076,0.232,3.146,0.232
			C236.283,194.327,245.82,184.788,245.82,173.002z"/>
		<path fill="none" stroke="#FFFFFF" stroke-width="2" stroke-miterlimit="10" d="M235.159,173.002c0-2.711-1.011-5.184-2.676-7.064
			c-2.507,2.266-5.229,4.298-8.136,6.06c0.098,1.322,0.148,2.657,0.148,4.005c0,2.598-0.189,5.15-0.547,7.647
			c0.182,0.01,0.364,0.014,0.548,0.014C230.391,183.664,235.159,178.896,235.159,173.002z"/>
		<path fill="none" stroke="#FFFFFF" stroke-width="2" stroke-miterlimit="10" d="M209.602,212.98
			c2.628-2.729,4.967-5.739,6.968-8.979c1.918-3.105,3.526-6.421,4.782-9.906c1.202-3.339,2.08-6.833,2.598-10.444
			c0.357-2.497,0.547-5.05,0.547-7.647c0-1.348-0.051-2.683-0.148-4.005c-3.292,1.995-6.817,3.644-10.526,4.896
			c-0.474,23.16-19.361,41.76-42.637,41.76c-23.573,0-42.648-19.077-42.648-42.649c0-14.01,6.737-26.43,17.152-34.203
			c-1.102-3.656-1.825-7.478-2.117-11.42c-15.411,9.339-25.699,26.268-25.699,45.622c0,29.467,23.846,53.313,53.313,53.313
			c10.805,0,20.851-3.209,29.246-8.723C203.768,218.4,206.844,215.845,209.602,212.98z"/>
		<path fill="none" stroke="#FFFFFF" stroke-width="2" stroke-miterlimit="10" d="M203.002,179.318
			c-1.656,16.119-15.257,28.673-31.817,28.673c-17.682,0-31.988-14.308-31.988-31.988c0-9.544,4.171-18.105,10.792-23.963
			c-1.772-3.224-3.219-6.651-4.3-10.238c-10.415,7.772-17.152,20.193-17.152,34.203c0,23.572,19.076,42.649,42.648,42.649
			c23.275,0,42.163-18.6,42.637-41.76C210.361,178.062,206.74,178.881,203.002,179.318z"/>
		<path fill="none" stroke="#FFFFFF" stroke-width="2" stroke-miterlimit="10" d="M139.197,176.003
			c0,17.681,14.306,31.988,31.988,31.988c16.561,0,30.161-12.554,31.817-28.673c-2.057,0.24-4.147,0.367-6.268,0.367
			c-1.521,0-3.026-0.066-4.515-0.191c-1.664,10.122-10.438,17.834-21.035,17.834c-11.787,0-21.323-9.538-21.323-21.325
			c0-5.897,2.388-11.231,6.25-15.089c-2.326-2.734-4.381-5.705-6.124-8.874C143.368,157.898,139.197,166.459,139.197,176.003z"/>
		<path fill="none" stroke="#FFFFFF" stroke-width="2" stroke-miterlimit="10" d="M149.861,176.003
			c0,11.787,9.537,21.325,21.323,21.325c10.597,0,19.371-7.712,21.035-17.834c-3.61-0.302-7.116-0.963-10.485-1.947
			c-0.747,5.161-5.181,9.119-10.55,9.119c-5.895,0-10.663-4.769-10.663-10.663c0-3.023,1.258-5.75,3.278-7.689
			c-2.804-2.204-5.378-4.686-7.688-7.4C152.249,164.772,149.861,170.105,149.861,176.003z"/>
		<path fill="none" stroke="#FFFFFF" stroke-width="2" stroke-miterlimit="10" d="M160.521,176.003
			c0,5.895,4.769,10.663,10.663,10.663c5.369,0,9.803-3.958,10.55-9.119c-6.599-1.928-12.668-5.093-17.935-9.233
			C161.78,170.253,160.521,172.979,160.521,176.003z"/>
		<path fill="none" stroke="#FFFFFF" stroke-width="2" stroke-miterlimit="10" d="M149.988,152.04
			c1.742,3.169,3.797,6.14,6.124,8.874c2.31,2.714,4.884,5.196,7.688,7.4c5.267,4.141,11.335,7.306,17.935,9.233
			c3.369,0.984,6.875,1.646,10.485,1.947c1.489,0.125,2.994,0.191,4.515,0.191c2.121,0,4.211-0.127,6.268-0.367
			c3.738-0.438,7.359-1.257,10.819-2.425c3.709-1.252,7.234-2.9,10.526-4.896c2.906-1.762,5.629-3.794,8.136-6.06
			c2.649-2.394,5.054-5.052,7.179-7.931c2.152-2.917,4.014-6.062,5.542-9.392c1.554-3.383,2.763-6.958,3.584-10.68
			c0.821-3.723,1.259-7.59,1.259-11.562c0-0.061-0.002-0.121-0.003-0.182c-0.099-29.382-23.904-53.128-53.31-53.128
			c-29.467,0-53.313,23.844-53.313,53.31c0,1.349,0.051,2.685,0.149,4.008c0.292,3.942,1.015,7.764,2.117,11.42
			C146.769,145.389,148.216,148.816,149.988,152.04z M196.735,83.726c23.573,0,42.648,19.074,42.648,42.648
			c0,23.572-19.075,42.649-42.648,42.649s-42.648-19.077-42.648-42.649C154.086,102.8,173.162,83.726,196.735,83.726z"/>
		<path fill="none" stroke="#FFFFFF" stroke-width="2" stroke-miterlimit="10" d="M196.735,169.023
			c23.573,0,42.648-19.077,42.648-42.649c0-23.575-19.075-42.648-42.648-42.648s-42.648,19.074-42.648,42.648
			C154.086,149.947,173.162,169.023,196.735,169.023z M196.735,94.387c17.679,0,31.987,14.308,31.987,31.986
			c0,17.681-14.308,31.988-31.987,31.988c-17.682,0-31.988-14.307-31.988-31.988C164.747,108.695,179.053,94.387,196.735,94.387z"/>
		<path fill="none" stroke="#FFFFFF" stroke-width="2" stroke-miterlimit="10" d="M164.747,126.374
			c0,17.681,14.306,31.988,31.988,31.988c17.679,0,31.987-14.307,31.987-31.988c0-17.678-14.308-31.986-31.987-31.986
			C179.053,94.387,164.747,108.695,164.747,126.374z M196.735,105.051c11.787,0,21.323,9.537,21.323,21.323
			c0,11.787-9.536,21.325-21.323,21.325s-21.324-9.539-21.324-21.325C175.411,114.587,184.948,105.051,196.735,105.051z"/>
		<path fill="none" stroke="#FFFFFF" stroke-width="2" stroke-miterlimit="10" d="M175.411,126.374
			c0,11.787,9.537,21.325,21.324,21.325s21.323-9.539,21.323-21.325c0-11.786-9.536-21.323-21.323-21.323
			S175.411,114.587,175.411,126.374z M196.735,115.712c5.894,0,10.663,4.77,10.663,10.661c0,5.894-4.769,10.663-10.663,10.663
			c-5.895,0-10.663-4.769-10.663-10.663C186.072,120.482,190.84,115.712,196.735,115.712z"/>
		<path fill="none" stroke="#FFFFFF" stroke-width="2" stroke-miterlimit="10" d="M186.072,126.374
			c0,5.894,4.769,10.663,10.663,10.663c5.894,0,10.663-4.769,10.663-10.663c0-5.892-4.769-10.661-10.663-10.661
			C190.84,115.712,186.072,120.482,186.072,126.374z"/>
	</g>
	<path fill="#FFFFFF" d="M192.144,224.895c2.24,6.965,3.493,14.711,3.493,22.878c0,9.925-1.858,19.222-5.083,27.255h19.001
		c-3.227-8.033-5.084-17.33-5.084-27.255c0-8.659,1.41-16.845,3.91-24.127c-2.734-0.868-5.374-1.946-7.896-3.223
		C197.856,222.148,195.067,223.648,192.144,224.895z"/>
</g>
<text transform="matrix(1 0 0 1 365.0146 198.3223)" fill="#FFFFFF" font-family="'TwCenMT-Regular'" font-size="125">RADICAL GROWTH</text>
</svg>
